<svg width="28" height="26" viewBox="0 0 28 26" fill="none" xmlns="http://www.w3.org/2000/svg">
<g filter="url(#filter0_d_6_121)">
<path d="M5.83333 10.8333C6.45217 10.8333 7.04566 11.0792 7.48325 11.5168C7.92083 11.9543 8.16667 12.5478 8.16667 13.1667V15.5H19.8333V13.1667C19.8333 12.5478 20.0792 11.9543 20.5168 11.5168C20.9543 11.0792 21.5478 10.8333 22.1667 10.8333M5.83333 10.8333C5.21449 10.8333 4.621 11.0792 4.18342 11.5168C3.74583 11.9543 3.5 12.5478 3.5 13.1667V17.8333C3.5 18.4522 3.74583 19.0457 4.18342 19.4832C4.621 19.9208 5.21449 20.1667 5.83333 20.1667H22.1667C22.7855 20.1667 23.379 19.9208 23.8166 19.4832C24.2542 19.0457 24.5 18.4522 24.5 17.8333V13.1667C24.5 12.5478 24.2542 11.9543 23.8166 11.5168C23.379 11.0792 22.7855 10.8333 22.1667 10.8333M5.83333 10.8333V5C5.83333 4.07174 6.20208 3.1815 6.85846 2.52513C7.51484 1.86875 8.40508 1.5 9.33333 1.5H18.6667C19.5949 1.5 20.4852 1.86875 21.1415 2.52513C21.7979 3.1815 22.1667 4.07174 22.1667 5V10.8333M7 20.1667V22.5M21 20.1667V22.5" stroke="#030712" stroke-opacity="0.5" stroke-width="2" stroke-linecap="round" stroke-linejoin="round" shape-rendering="crispEdges"/>
</g>
<defs>
<filter id="filter0_d_6_121" x="-1.5" y="0.5" width="31" height="31" filterUnits="userSpaceOnUse" color-interpolation-filters="sRGB">
<feFlood flood-opacity="0" result="BackgroundImageFix"/>
<feColorMatrix in="SourceAlpha" type="matrix" values="0 0 0 0 0 0 0 0 0 0 0 0 0 0 0 0 0 0 127 0" result="hardAlpha"/>
<feOffset dy="4"/>
<feGaussianBlur stdDeviation="2"/>
<feComposite in2="hardAlpha" operator="out"/>
<feColorMatrix type="matrix" values="0 0 0 0 0 0 0 0 0 0 0 0 0 0 0 0 0 0 0.25 0"/>
<feBlend mode="normal" in2="BackgroundImageFix" result="effect1_dropShadow_6_121"/>
<feBlend mode="normal" in="SourceGraphic" in2="effect1_dropShadow_6_121" result="shape"/>
</filter>
</defs>
</svg>
