<svg width="34" height="37" viewBox="0 0 34 37" fill="none" xmlns="http://www.w3.org/2000/svg">
<g filter="url(#filter0_d_6_130)">
<path d="M17 28C15.4241 28 13.8637 27.6896 12.4078 27.0866C10.9519 26.4835 9.62902 25.5996 8.51472 24.4853C7.40042 23.371 6.5165 22.0481 5.91345 20.5922C5.31039 19.1363 5 17.5759 5 16C5 14.4241 5.31039 12.8637 5.91345 11.4078C6.5165 9.95189 7.40042 8.62902 8.51472 7.51472C9.62902 6.40042 10.9519 5.5165 12.4078 4.91345C13.8637 4.31039 15.4241 4 17 4C18.5759 4 20.1363 4.31039 21.5922 4.91345C23.0481 5.5165 24.371 6.40042 25.4853 7.51472C26.5996 8.62902 27.4835 9.95189 28.0866 11.4078C28.6896 12.8637 29 14.4241 29 16C29 17.5759 28.6896 19.1363 28.0866 20.5922C27.4835 22.0481 26.5996 23.371 25.4853 24.4853C24.371 25.5996 23.0481 26.4835 21.5922 27.0866C20.1363 27.6896 18.5759 28 17 28ZM17 28V18.6667M14.3333 16C14.3333 16.7072 14.6143 17.3855 15.1144 17.8856C15.6145 18.3857 16.2928 18.6667 17 18.6667M14.3333 16C14.3333 15.2928 14.6143 14.6145 15.1144 14.1144C15.6145 13.6143 16.2928 13.3333 17 13.3333C17.7072 13.3333 18.3855 13.6143 18.8856 14.1144C19.3857 14.6145 19.6667 15.2928 19.6667 16M14.3333 16L5.33333 13.3333M17 18.6667C17.7072 18.6667 18.3855 18.3857 18.8856 17.8856C19.3857 17.3855 19.6667 16.7072 19.6667 16M19.6667 16L28.6667 13.3333" stroke="#030712" stroke-opacity="0.7" stroke-width="2" stroke-linecap="round" stroke-linejoin="round"/>
</g>
<defs>
<filter id="filter0_d_6_130" x="-3" y="0" width="40" height="40" filterUnits="userSpaceOnUse" color-interpolation-filters="sRGB">
<feFlood flood-opacity="0" result="BackgroundImageFix"/>
<feColorMatrix in="SourceAlpha" type="matrix" values="0 0 0 0 0 0 0 0 0 0 0 0 0 0 0 0 0 0 127 0" result="hardAlpha"/>
<feOffset dy="4"/>
<feGaussianBlur stdDeviation="2"/>
<feComposite in2="hardAlpha" operator="out"/>
<feColorMatrix type="matrix" values="0 0 0 0 0 0 0 0 0 0 0 0 0 0 0 0 0 0 0.25 0"/>
<feBlend mode="normal" in2="BackgroundImageFix" result="effect1_dropShadow_6_130"/>
<feBlend mode="normal" in="SourceGraphic" in2="effect1_dropShadow_6_130" result="shape"/>
</filter>
</defs>
</svg>
